<?xml version="1.0" encoding="UTF-8" standalone="no"?>
<!-- Created with Inkscape (http://www.inkscape.org/) -->

<svg
   width="512"
   height="512"
   version="1.1"
   viewBox="0 0 512 512"
   xml:space="preserve"
   id="svg30"
   sodipodi:docname="logo.svg"
   inkscape:version="1.4.2 (f4327f4, 2025-05-13)"
   xmlns:inkscape="http://www.inkscape.org/namespaces/inkscape"
   xmlns:sodipodi="http://sodipodi.sourceforge.net/DTD/sodipodi-0.dtd"
   xmlns="http://www.w3.org/2000/svg"
   xmlns:svg="http://www.w3.org/2000/svg"><defs
     id="defs30" /><sodipodi:namedview
     id="namedview30"
     pagecolor="#ffffff"
     bordercolor="#000000"
     borderopacity="0.25"
     inkscape:showpageshadow="2"
     inkscape:pageopacity="0.0"
     inkscape:pagecheckerboard="0"
     inkscape:deskcolor="#d1d1d1"
     inkscape:zoom="1.0605469"
     inkscape:cx="256"
     inkscape:cy="256"
     inkscape:window-width="1366"
     inkscape:window-height="745"
     inkscape:window-x="-8"
     inkscape:window-y="-8"
     inkscape:window-maximized="1"
     inkscape:current-layer="svg30" /><g
     id="g30"
     transform="matrix(1.4169392,0,0,1.4065846,-103.48194,-76.322021)"><path
       d="m 198.85,360.87 10.001,-5.5006 21.002,-10.834 -0.50006,-2.1669 -1.3335,-1.6668 v -1.6668 l 1.1668,-2.0002 1.1668,-0.50005 1.6668,-0.16669 h 1.3335 l 1.1668,1.0001 0.33337,1.6668 0.66674,1.8335 0.83342,0.83343 17.002,-8.6676 108.01,-56.056 -1.0608,-3.8895 -0.70718,-3.8895 0.11786,-5.7753 1.0608,-4.361 2.1215,-4.1252 3.0645,-4.2431 3.3002,-2.4751 2.4751,-1.2965 -1.768,-3.6538 -2.0037,0.47145 -2.593,0.23573 -1.768,-1.6501 -1.4144,-2.0037 -0.47145,-2.2394 0.70718,-3.1823 0.82505,-2.0037 2.8287,-1.2965 -2.0037,-3.8895 -1.5322,0.35359 -3.1823,0.23573 -2.1215,-0.70719 -0.82505,-1.768 -0.47145,-1.0608 -0.70719,-1.768 -0.11786,-2.9466 1.1786,-1.6501 1.6501,-1.4144 1.6501,-0.94291 -2.2394,-4.0074 -2.1216,0.23573 h -2.0037 l -1.8858,-0.11786 -1.5322,-1.6501 -1.2965,-1.8858 -0.58932,-2.1215 0.58932,-2.7109 0.82505,-2.0037 1.8858,-1.1786 1.0608,-0.70718 -1.6501,-3.3002 -2.1216,0.11786 -2.4751,-0.23573 -1.2965,-0.58932 -1.4144,-1.2965 -0.82505,-2.593 -0.23573,-2.593 1.0608,-3.418 3.1823,-1.4144 -1.6501,-4.1252 -3.6538,0.58931 -2.9466,-0.35359 -1.5322,-1.6501 -0.70718,-2.2394 v -2.0037 l 0.35359,-2.3573 1.5322,-1.8858 2.2394,-1.4144 -1.8858,-4.1252 -3.5359,1.0608 -3.7716,0.35359 -3.8895,-0.35359 -2.9466,-0.94291 -3.0645,-1.1786 -2.3573,-2.0037 -2.9466,-2.8287 -2.4751,-3.3002 -2.0037,-3.418 -0.58932,-0.47145 -8.8398,4.8324 -114.75,58.598 -0.41671,1.8335 1.2501,3.167 1.3335,3.0837 0.0833,2.0002 -0.91676,2.4169 -2.0002,0.75008 -2.0836,-0.50005 -1.6668,-1.3335 -0.83342,-3.167 -1.6668,-3.0837 -0.41671,-1.2501 -29.837,15.668 -0.41671,1.0001 0.83342,3.0003 0.5834,2.5836 0.0833,3.3337 -0.16668,4.4171 -1.1668,4.4171 -2.3336,4.4171 -2.8336,4.0004 -2.917,2.917 -2.1669,1.3335 1.5002,3.5837 2.0002,-0.58339 1.5002,0.16668 1.5002,0.50005 1.0834,0.91677 1.4168,1.5002 1.0834,1.9169 v 2.5836 l -0.66674,1.4168 -1.1668,2.2502 -1.6668,0.83342 -0.66674,0.41671 1.3335,4.5005 1.4168,-0.16668 0.91677,-0.75008 2.0002,-0.16669 c 0,0 0.91677,0.33337 1.2501,0.41671 0.33337,0.0833 1.4168,1.2501 1.4168,1.2501 l 0.91677,1.5002 0.91676,1.5002 v 2.3336 l -0.41671,2.2502 -1.4168,2.0002 -1.6668,1.4168 -0.50006,0.5834 0.91677,3.0003 1.9169,-0.25003 0.91677,-0.41671 1.8335,-0.0833 1.0834,0.58339 2.3336,2.3336 0.83342,2.0002 0.50005,1.5835 0.0833,1.5835 -0.66673,1.7502 -1.1668,1.4168 -1.6668,1.4168 -0.83342,0.50005 1.4168,3.0837 2.667,-0.41672 2.1669,0.16669 1.5835,0.91676 1.6668,2.0836 0.5834,2.0836 -0.0833,2.8336 -0.33337,2.1669 -1.2501,1.5835 -2.1669,0.91677 2.0002,4.0838 2.667,-0.66674 2.0002,-0.16669 2.0002,0.83343 0.91676,2.0002 1.2501,2.5836 -0.91677,4.5005 -1.5835,1.9169 -2.2502,1.7502 1.9169,3.0003 2.917,-1.2501 4.5005,-0.83342 3.7504,0.5834 4.3338,1.0001 4.2504,2.5003 3.2504,3.6671 2.5836,4.1671 z"
       fill="#4e4e4e"
       id="path1" /><g
       fill="#ffffff"
       id="g6"><path
         d="m 225.36,326.95 2.1216,-0.94291 1.0608,-1.768 -0.94291,-3.5359 -2.8287,-6.6004 -1.5322,-2.3573 -1.768,-0.35359 -1.768,0.11786 -1.0608,1.2965 -0.82504,1.4144 0.70718,2.2394 2.0037,4.5967 1.5322,3.6538 1.2965,1.6501 z"
         id="path2" /><path
         d="m 215.3,302.13 2.1216,-0.94291 1.0608,-1.768 -0.94291,-3.5359 -2.8287,-6.6004 -1.5322,-2.3573 -1.768,-0.35359 -1.768,0.11786 -1.0608,1.2965 -0.82504,1.4144 0.70718,2.2394 2.0037,4.5967 1.5322,3.6538 1.2965,1.6501 z"
         id="path3" /><path
         d="m 205.48,277.62 2.1216,-0.94291 1.0608,-1.768 -0.94291,-3.5359 -2.8287,-6.6004 -1.5322,-2.3573 -1.768,-0.35359 -1.768,0.11786 -1.0608,1.2965 -0.82504,1.4144 0.70718,2.2394 2.0037,4.5967 1.5322,3.6538 1.2965,1.6501 z"
         id="path4" /><path
         d="m 196.41,253.49 2.1216,-0.94291 1.0608,-1.768 -0.94291,-3.5359 -2.8287,-6.6004 -1.5322,-2.3573 -1.768,-0.35359 -1.768,0.11786 -1.0608,1.2965 -0.82504,1.4144 0.70718,2.2394 2.0037,4.5967 1.5322,3.6538 1.2965,1.6501 z"
         id="path5" /><path
         d="m 250.19,248.69 19.169,-10.668 -1.1668,-25.003 15.835,16.168 21.002,-10.168 -10.168,23.669 14.668,18.835 -22.169,-2.1669 -12.168,20.169 -3.8337,-24.003 z"
         id="path6" /></g><g
       fill="#8b5cf6"
       id="g26"><g
         id="g14"><path
           d="m 149.18,373.87 31.67,-16.502 8.3342,6.334 -33.337,18.002 -2.8336,1.0001 -2.0002,-0.83343 -1.8335,-1.3335 -1.1668,-1.5002 -0.16668,-2.667 z"
           id="path7" /><path
           d="m 138.85,360.04 21.169,-11.001 -4.1671,-9.8344 -12.168,6.5007 -8.3342,3.8338 -3.5004,3.0003 -0.16669,4.1671 1.0001,2.5003 3.3337,1.6668 z"
           id="path8" /><path
           d="m 182.35,379.04 156.35,-78.675 -4.0004,7.3341 -2.667,10.668 2.667,10.668 4.0004,6.0006 8.0008,5.6673 -40.004,6.0006 -37.337,8.0009 -27.003,7.3341 -24.669,7.3341 z"
           id="path9" /><path
           d="m 355.04,332.37 1.3335,9.6677 18.002,-2.667 -2.3336,-9.3343 z"
           id="path10" /><path
           d="m 295.36,361.04 -0.66673,9.6677 17.335,1.0001 0.33337,-9.6677 z"
           id="path11" /><path
           d="m 140.68,228.02 20.336,-20.336 40.004,-46.338 32.337,-45.672 0.33337,7.3341 2.3336,8.0008 4.0004,5.0005 7.3341,1.0001 6.0006,-0.66674 -57.006,63.007 z"
           id="path12" /><path
           d="M 253.03,96.677 265.031,107.345 282.7,83.009 271.365,72.675 Z"
           id="path13" /><path
           d="m 200.69,122.01 6.6674,4.0004 -9.3343,16.335 -6.334,-4.6672 z"
           id="path14" /></g><path
         d="m 138.68,387.21 a 5.6673,5.5006 0 0 1 -5.6673,5.5006 5.6673,5.5006 0 0 1 -5.6673,-5.5006 5.6673,5.5006 0 0 1 5.6673,-5.5006 5.6673,5.5006 0 0 1 5.6673,5.5006 z"
         id="path15" /><g
         id="g25"><path
           d="m 138.01,304.7 8.3342,16.335 -42.671,24.003 -5.3339,2.0002 -3.6671,-3.3337 -3.3337,-8.0008 1.3335,-6.0006 z"
           id="path16" /><path
           d="m 76.675,380.37 36.004,-20.002 h 5.0005 l 1.3335,1.6668 1.3335,2.3336 -0.66674,3.3337 -3.0003,3.3337 -32.003,16.668 -4.3338,1.6668 -1.6668,-1.0001 -1.6668,-1.3335 -1.3335,-2.3336 z"
           id="path17" /><path
           d="m 48.338,374.04 20.669,-11.668 0.33337,-5.3339 -3.0003,-4.0004 -4.3338,-1.3335 -19.335,12.001 0.33337,4.0004 1.3335,4.3338 z"
           id="path18" /><path
           d="m 80.675,313.7 10.668,-5.3339 0.66674,-6.0006 -3.6671,-3.6671 -11.001,5.3339 -3.3337,3.0003 1.0001,5.6673 z"
           id="path19" /><path
           d="m 103.51,289.2 25.503,-14.835 5.3339,9.3343 -25.836,14.002 -4.6672,0.66673 -1.8335,-1.6668 -0.33337,-4.0004 z"
           id="path20" /><path
           d="m 140.52,238.19 v 12.335 l -36.337,19.669 -3.0003,0.33337 -3.167,-1.1668 -1.3335,-3.3337 1.5002,-4.1671 2.667,-2.1669 z"
           id="path21" /><path
           d="m 417.21,286.53 14.002,-4.8338 2.3336,2.5003 0.33337,4.6672 -3.8337,2.0002 -8.8343,2.667 -2.5003,0.16669 -2.5003,-2.1669 z"
           id="path22" /><path
           d="m 387.37,227.69 29.17,-7.0008 4.5005,16.335 -30.17,8.1675 z"
           id="path23" /><path
           d="m 356.7,171.02 12.501,-11.001 -3.5004,-5.1672 -13.001,10.668 z"
           id="path24" /><path
           d="m 359.04,181.69 41.504,-27.336 2.8336,0.50005 11.501,21.836 0.16668,4.6672 -42.671,26.836 -3.6671,-0.33337 -11.168,-21.669 z"
           id="path25" /></g></g><g
       fill="#8fe24e"
       id="g29"><path
         d="m 438.38,167.02 17.669,-9.6677 5.0005,8.0009 -16.668,10.334 z"
         id="path26" /><path
         d="m 391.71,84.342 -40.004,31.003 13.001,24.336 42.671,-30.67 z"
         id="path27" /><path
         d="m 212.36,189.69 c 0,0 96.677,-103.68 98.344,-110.68 1.6668,-7.0007 -3.3337,11.668 -2.667,14.001 0.66674,2.3336 1.6668,14.001 3.6671,15.002 2.0002,1.0001 8.6676,9.001 12.668,10.001 4.0004,1.0001 13.001,2.0002 13.001,2.0002 l -65.007,40.004 z"
         id="path28" /><path
         d="m 345.37,304.37 -2.0002,11.668 53.006,-1.0001 -8.3342,-6.0006 -3.6671,-5.3339 -1.0001,-7.0008 2.667,-8.6676 4.0004,-5.3339 z"
         id="path29" /></g></g></svg>
